<svg width="1280" height="320" viewBox="0 0 1280 320" fill="none" xmlns="http://www.w3.org/2000/svg">
  <style>
    .font-ui {
      font-family: "Segoe UI", "PingFang SC", "Hiragino Sans GB", "Microsoft YaHei", Arial, sans-serif;
      font-style: normal;
      font-kerning: normal;
      text-rendering: geometricPrecision;
    }
  </style>
  <rect width="1280" height="320" rx="24" fill="#0F172A"/>
  <rect x="24" y="24" width="1232" height="272" rx="18" fill="url(#bg)"/>
  <circle cx="1110" cy="86" r="120" fill="#F59E0B" fill-opacity="0.14"/>
  <circle cx="1180" cy="250" r="150" fill="#FB7185" fill-opacity="0.12"/>
  <circle cx="154" cy="82" r="54" fill="#FDE68A" fill-opacity="0.22"/>
  <path d="M0 238C120 198 206 176 331 185C466 195 545 264 701 259C853 255 930 166 1041 155C1120 147 1188 164 1280 204V320H0V238Z" fill="#111827" fill-opacity="0.42"/>
  <rect x="94" y="76" width="136" height="136" rx="24" fill="#111827" fill-opacity="0.72" stroke="#F59E0B" stroke-opacity="0.55" stroke-width="2"/>
  <clipPath id="avatarClip">
    <rect x="102" y="84" width="120" height="120" rx="20"/>
  </clipPath>
  <image href="https://avatars.githubusercontent.com/u/102610064?v=4" x="102" y="84" width="120" height="120" preserveAspectRatio="xMidYMid slice" clip-path="url(#avatarClip)"/>
  <text x="280" y="120" fill="#FFF7ED" class="font-ui" font-size="40" font-weight="700">Micah Zheng</text>
  <text x="280" y="162" fill="#FED7AA" class="font-ui" font-size="24" font-weight="700">后端开发者 · 开源贡献者</text>
  <text x="280" y="202" fill="#E5E7EB" class="font-ui" font-size="20">专注实用产品、服务设计与开源协作。</text>
  <text x="280" y="232" fill="#D1D5DB" class="font-ui" font-size="18">为 GithubStarsManager 完整开发后端，并为社区工具提供中文本地化贡献。</text>
  <rect x="280" y="252" width="206" height="34" rx="17" fill="#F59E0B"/>
  <text x="383" y="274" fill="#111827" class="font-ui" font-size="16" font-weight="700" text-anchor="middle">Go / TypeScript / 接口设计</text>
  <defs>
    <linearGradient id="bg" x1="44" y1="34" x2="1188" y2="310" gradientUnits="userSpaceOnUse">
      <stop stop-color="#1E293B"/>
      <stop offset="0.55" stop-color="#111827"/>
      <stop offset="1" stop-color="#3F1D0D"/>
    </linearGradient>
  </defs>
</svg>
