<svg width="1280" height="320" viewBox="0 0 1280 320" fill="none" xmlns="http://www.w3.org/2000/svg">
  <rect width="1280" height="320" rx="24" fill="#0F172A"/>
  <rect x="24" y="24" width="1232" height="272" rx="18" fill="url(#bg)"/>
  <circle cx="1110" cy="86" r="120" fill="#F59E0B" fill-opacity="0.14"/>
  <circle cx="1180" cy="250" r="150" fill="#FB7185" fill-opacity="0.12"/>
  <circle cx="154" cy="82" r="54" fill="#FDE68A" fill-opacity="0.22"/>
  <path d="M0 238C120 198 206 176 331 185C466 195 545 264 701 259C853 255 930 166 1041 155C1120 147 1188 164 1280 204V320H0V238Z" fill="#111827" fill-opacity="0.42"/>
  <rect x="96" y="78" width="132" height="132" rx="22" fill="#111827" fill-opacity="0.72" stroke="#F59E0B" stroke-opacity="0.55" stroke-width="2"/>
  <text x="126" y="132" fill="#FBBF24" font-family="Arial, Helvetica, sans-serif" font-size="52" font-weight="700">MZ</text>
  <text x="280" y="118" fill="#FFF7ED" font-family="Arial, Helvetica, sans-serif" font-size="42" font-weight="700">Micah Zheng</text>
  <text x="280" y="158" fill="#FED7AA" font-family="Arial, Helvetica, sans-serif" font-size="22">Backend Engineer • Open Source Contributor</text>
  <text x="280" y="206" fill="#E5E7EB" font-family="Arial, Helvetica, sans-serif" font-size="20">Built the backend for GithubStarsManager and contribute localization to community tools.</text>
  <rect x="280" y="230" width="182" height="34" rx="17" fill="#F59E0B"/>
  <text x="308" y="252" fill="#111827" font-family="Arial, Helvetica, sans-serif" font-size="16" font-weight="700">Go / TypeScript / API</text>
  <defs>
    <linearGradient id="bg" x1="44" y1="34" x2="1188" y2="310" gradientUnits="userSpaceOnUse">
      <stop stop-color="#1E293B"/>
      <stop offset="0.55" stop-color="#111827"/>
      <stop offset="1" stop-color="#3F1D0D"/>
    </linearGradient>
  </defs>
</svg>
